inDegrees=yes
name=ik_lifting_orientations
DataType=double
version=3
OpenSimVersion=4.5-2024-01-10-34fd6af
endheader
time	pelvis_tilt	pelvis_list	pelvis_rotation	pelvis_tx	pelvis_ty	pelvis_tz	hip_flexion_r	hip_adduction_r	hip_rotation_r	knee_angle_r	knee_angle_r_beta	ankle_angle_r	subtalar_angle_r	mtp_angle_r	hip_flexion_l	hip_adduction_l	hip_rotation_l	knee_angle_l	knee_angle_l_beta	ankle_angle_l	subtalar_angle_l	mtp_angle_l	lumbar_extension	lumbar_bending	lumbar_rotation	arm_flex_r	arm_add_r	arm_rot_r	elbow_flex_r	pro_sup_r	wrist_flex_r	wrist_dev_r	arm_flex_l	arm_add_l	arm_rot_l	elbow_flex_l	pro_sup_l	wrist_flex_l	wrist_dev_l
0.8	2.400267993949262	19.09079415669961	-108.4661529341742	0	0.9399999998679526	0	43.81840816358945	-10.10345603984868	0	58.18065366602988	1.015443967434731	-5.025285694578769	0	0	43.81840816358945	-10.10345603984868	0	58.18065366602988	1.015443967434731	-5.025285694578769	0	0	-36.87663425151147	-6.287166508252263	16.0783840524849	55.70383705585248	-7.313335376027895	3.520730336061296	11.29698173551647	4.579978419698987	0	0	0	-10.87361889096528	0	85.46434157932609	4.579978419698987	0	0
0.8100000000000001	2.555217950559337	20.25779084980991	-108.827630080349	0	0.9399999998679526	0	43.81928708500953	-10.10318935722597	0	58.18172024763663	1.01546258279551	-5.025200879592858	0	0	43.81928708500953	-10.10318935722597	0	58.18172024763663	1.01546258279551	-5.025200879592858	0	0	-37.03634066769909	-6.611268300860239	16.44619180034473	57.180603842213	-7.585609293863183	3.421514654865538	11.69568281075431	4.577599075059301	0	0	0	-10.87519639972236	0	85.46669769928512	4.577599075059301	0	0
0.82	2.584304512289661	21.5192748880039	-108.6742102070485	0	0.9399999998679526	0	43.82004190484627	-10.10296110181286	0	58.18263751327021	1.015478592100931	-5.025128363457553	0	0	43.82004190484627	-10.10296110181286	0	58.18263751327021	1.015478592100931	-5.025128363457553	0	0	-36.9872971879128	-6.45822437579087	16.57167083555612	58.48407243526024	-7.912132984254866	3.503655002193244	12.082716874159	4.575554285455516	0	0	0	-10.87655282654612	0	85.46872253018148	4.575554285455516	0	0
0.83	2.607565931477502	22.84188497124253	-108.4773942712867	0	0.9399999998679526	0	43.82067202868702	-10.10277138232237	0	58.18340485435191	1.015491984729292	-5.025068167096179	0	0	43.82067202868702	-10.10277138232237	0	58.18340485435191	1.015491984729292	-5.025068167096179	0	0	-36.74077675356878	-6.327835415025839	16.61907979898094	59.73492593927453	-8.142102958372238	3.640437606006315	12.3954032029757	4.573845670985809	0	0	0	-10.87768710647845	0	85.47041446771237	4.573845670985809	0	0
0.84	2.644319225024033	24.08887283861233	-108.5188733840682	0	0.9399999998679526	0	43.82140594261757	-10.10255014445931	0	58.18429714230944	1.015507558092027	-5.02499796912818	0	0	43.82140594261757	-10.10255014445931	0	58.18429714230944	1.015507558092027	-5.02499796912818	0	0	-36.49802148229298	-6.385686202656199	16.76110868992232	60.89598744709539	-8.327344852892011	3.501228029447743	12.67937399897998	4.571856642693298	0	0	0	-10.87900693806156	0	85.4723840818517	4.571856642693298	0	0
0.85	2.789321068021954	25.14619942055469	-108.867496302129	0	0.9399999998679526	0	43.82231512471911	-10.1022751725233	0	58.18539899879927	1.015526789115659	-5.024910683887336	0	0	43.82231512471911	-10.1022751725233	0	58.18539899879927	1.015526789115659	-5.024910683887336	0	0	-36.62702183539242	-6.76627825713047	17.0197386853746	62.22259055494575	-8.608439071357743	3.144712310081817	12.98276404437257	4.569395350069604	0	0	0	-10.8806385578296	0	85.47482135005433	4.569395350069604	0	0
0.86	2.813897216145409	26.02094997790857	-108.8693234659968	0	0.9399999998679526	0	43.82317290317318	-10.10201620062292	0	58.18643845589477	1.015544931064409	-5.024828544938945	0	0	43.82317290317318	-10.10201620062292	0	58.18643845589477	1.015544931064409	-5.024828544938945	0	0	-37.17294591896651	-6.908426618101799	17.05413793097479	63.68942296875228	-8.909668449378353	2.585345996670712	13.27951903148329	4.567072898278418	0	0	0	-10.88217821646816	0	85.47712113274876	4.567072898278418	0	0
0.87	2.805036690006591	26.40646767732834	-108.8900149683849	0	0.9399999998679526	0	43.82356213394667	-10.10189840964006	0	58.18690983502528	1.015553158182262	-5.024791154270609	0	0	43.82356213394667	-10.10189840964006	0	58.18690983502528	1.015553158182262	-5.024791154270609	0	0	-37.9683814515401	-7.130921721792836	17.048243257757	64.91033013911158	-9.29418358561014	1.967019711552469	13.45568299892679	4.566019336860236	0	0	0	-10.8828765859353	0	85.47816441047738	4.566019336860236	0	0
0.88	2.849106785603561	27.02623927432225	-108.888152665395	0	0.9399999998679526	0	43.82389003627403	-10.10179933982842	0	58.18730725403287	1.015560094452454	-5.02475972158108	0	0	43.82389003627403	-10.10179933982842	0	58.18730725403287	1.015560094452454	-5.02475972158108	0	0	-38.19472069837774	-7.260775403811638	17.02498922226743	65.79593938050272	-9.602713945324641	1.25697089404058	13.60788679986989	4.565131453754751	0	0	0	-10.88346530769794	0	85.4790436271518	4.565131453754751	0	0
0.89	2.864367022061695	27.92138685972002	-108.7882340368312	0	0.9399999998679526	0	43.82410351744767	-10.10173550592724	0	58.18756802972531	1.015564645846896	-5.024739511852371	0	0	43.82410351744767	-10.10173550592724	0	58.18756802972531	1.015564645846896	-5.024739511852371	0	0	-38.16823005273527	-7.212171875626251	17.00136260820376	66.68038487473021	-9.885547234295705	0.8012068648650531	13.85618463476141	4.564551631430584	0	0	0	-10.88385077654445	0	85.47961779042819	4.564551631430584	0	0
0.9	2.742131375216167	28.79774597836563	-108.4358569013694	0	0.9399999998679526	0	43.82493933627465	-10.10148462799412	0	58.18858279377268	1.015582356820654	-5.024660100745231	0	0	43.82493933627465	-10.10148462799412	0	58.18858279377268	1.015582356820654	-5.024660100745231	0	0	-38.26011592665297	-6.952771090596671	16.88423735527989	67.67401702126982	-10.13476644530852	0.6897187347727809	14.06638307594355	4.562286235299593	0	0	0	-10.88535382059135	0	85.48186107507966	4.562286235299593	0	0
0.91	2.636256000406412	29.60726372800329	-108.0454079833991	0	0.9399999998679526	0	43.82582893730621	-10.10121790114953	0	58.18966256581813	1.015601202398018	-5.024575722337996	0	0	43.82582893730621	-10.10121790114953	0	58.18966256581813	1.015601202398018	-5.024575722337996	0	0	-38.4314620519123	-6.75235162292761	16.65276456857335	68.60827535226836	-10.29882725209435	0.7020726229020543	14.45568871143706	4.559874960470958	0	0	0	-10.88695364186806	0	85.4842488146396	4.559874960470958	0	0
0.92	2.622533588012123	30.25072077521312	-108.0043582328847	0	0.9399999998679526	0	43.82645330311298	-10.10103213477868	0	58.19042351822203	1.015614483522917	-5.0245170804704	0	0	43.82645330311298	-10.10103213477868	0	58.19042351822203	1.015614483522917	-5.0245170804704	0	0	-38.52302149276759	-6.80506030606958	16.7150898282078	69.28543558717369	-10.48355051191599	0.6811006859432956	14.99072424316832	4.558179613326915	0	0	0	-10.88808006403445	0	85.48592761512671	4.558179613326915	0	0
0.93	2.685670701033668	30.87423823275813	-108.0389843087806	0	0.9399999998679526	0	43.82709796817246	-10.10084055991991	0	58.19120905112862	1.01562819365852	-5.024456642033612	0	0	43.82709796817246	-10.10084055991991	0	58.19120905112862	1.01562819365852	-5.024456642033612	0	0	-38.63539305221321	-6.875993208804503	16.67760455254306	69.97403918321633	-10.64732925541898	0.6106436349505626	15.57040035712505	4.556429030327488	0	0	0	-10.88924319799622	0	85.48766111241919	4.556429030327488	0	0
0.9399999999999999	2.746577249813336	31.48840558102784	-108.2044912836504	0	0.9399999998679526	0	43.82778737321838	-10.10063547462224	0	58.19204802822408	1.015642836571184	-5.024391937831148	0	0	43.82778737321838	-10.10063547462224	0	58.19204802822408	1.015642836571184	-5.024391937831148	0	0	-38.69473382798789	-7.034402710666075	16.80714726283565	70.60317304475569	-10.79939600306235	0.4006922391621881	16.0789865941257	4.554557727148305	0	0	0	-10.89048608862079	0	85.48951415148406	4.554557727148305	0	0
0.95	2.876786712437682	32.17699119274091	-108.512236198578	0	0.9399999998679526	0	43.82858234567831	-10.10039909800742	0	58.19301506879703	1.015659714613183	-5.024317387875015	0	0	43.82858234567831	-10.10039909800742	0	58.19301506879703	1.015659714613183	-5.024317387875015	0	0	-38.46041905426152	-7.242379772106699	17.02205422966217	70.96805206815736	-10.88343077935477	0.1625185551844646	16.64240170409271	4.552399970034876	0	0	0	-10.8919191472902	0	85.49165084867278	4.552399970034876	0	0
0.96	2.95196758975498	32.83966060029508	-108.7304450978778	0	0.9399999998679526	0	43.82906422951299	-10.10025828414286	0	58.19360769488033	1.015670057889569	-5.024273164835098	0	0	43.82906422951299	-10.10025828414286	0	58.19360769488033	1.015670057889569	-5.024273164835098	0	0	-38.3432511874099	-7.375781308435179	17.20256469834539	71.52233156419497	-10.92944514856208	0.08307224888188761	17.20865627588829	4.551086209519115	0	0	0	-10.89279486513871	0	85.49295178826259	4.551086209519115	0	0
0.97	2.892131070148646	33.30598794778711	-108.6067287673733	0	0.9399999998679526	0	43.82968508813912	-10.10007499832246	0	58.19436553026947	1.015683284612298	-5.024215481175775	0	0	43.82968508813912	-10.10007499832246	0	58.19436553026947	1.015683284612298	-5.024215481175775	0	0	-38.5521851888891	-7.428534018505143	17.21395249202499	72.20790473776306	-10.94032955617232	-0.001889754288172308	17.66811458038357	4.549398383348709	0	0	0	-10.89391723698063	0	85.4946231418096	4.549398383348709	0	0
0.98	2.826533994446641	33.74836628175332	-108.4916045028453	0	0.9399999998679526	0	43.82988267194263	-10.1000169575103	0	58.19460822886882	1.015687520501947	-5.024197219182081	0	0	43.82988267194263	-10.1000169575103	0	58.19460822886882	1.015687520501947	-5.024197219182081	0	0	-38.4412297699247	-7.345412266924822	17.17917491118125	72.58573801623908	-10.95445538206288	0.2717932389074819	17.96075579474093	4.548860019658045	0	0	0	-10.89427601007572	0	85.49515625159226	4.548860019658045	0	0
0.99	2.709148951677447	34.06859000542813	-108.2259341225459	0	0.9399999998679526	0	43.83031442597754	-10.09988839555167	0	58.19513255736675	1.015696671760598	-5.024156670124007	0	0	43.83031442597754	-10.09988839555167	0	58.19513255736675	1.015696671760598	-5.024156670124007	0	0	-38.76893973148455	-7.35282731739571	16.92111248554733	73.27085690693036	-10.91883595116458	0.2535095223856826	17.98491699704732	4.547688647389183	0	0	0	-10.89505370695729	0	85.49631619108618	4.547688647389183	0	0
1	2.679208716705922	34.47148979060714	-108.1155929853715	0	0.9399999998679526	0	43.83047176209264	-10.0998420119934	0	58.19532507996925	1.015700031913896	-5.024142070656078	0	0	43.83047176209264	-10.0998420119934	0	58.19532507996925	1.015700031913896	-5.024142070656078	0	0	-38.80448257600815	-7.304138606864212	16.79949098903096	73.61848366196647	-10.88385946946944	-0.1883657232287832	18.24544168368241	4.547260526064243	0	0	0	-10.89533866798209	0	85.49674013421414	4.547260526064243	0	0
1.01	2.684566806705858	34.87981167305215	-108.1512367324569	0	0.9399999998679526	0	43.83072189029694	-10.09976813927097	0	58.19563064848981	1.01570536509067	-5.024118812198028	0	0	43.83072189029694	-10.09976813927097	0	58.19563064848981	1.01570536509067	-5.024118812198028	0	0	-38.82562502981678	-7.4325385567458	16.85207661767202	74.08979023939037	-10.78382322346734	-0.8355213258701685	18.70723815458751	4.546580315777657	0	0	0	-10.89579118657573	0	85.49741370597002	4.546580315777657	0	0
1.02	2.83379769176116	35.3082857831542	-108.5340009327233	0	0.9399999998679526	0	43.83107900316595	-10.09966237801181	0	58.19606568465787	1.015712957904168	-5.024085502691726	0	0	43.83107900316595	-10.09966237801181	0	58.19606568465787	1.015712957904168	-5.024085502691726	0	0	-38.7739786959312	-7.749711124623823	17.19492764819721	74.50748860831308	-10.74302624324665	-1.449630405344109	19.10444014553399	4.545610147657953	0	0	0	-10.89643601887365	0	85.49837440545416	4.545610147657953	0	0
1.03	2.846533893012966	35.81540445822799	-108.5601050340513	0	0.9399999998679526	0	43.83141327248128	-10.09956365806551	0	58.19647367247072	1.01572007863481	-5.024054430942892	0	0	43.83141327248128	-10.09956365806551	0	58.19647367247072	1.01572007863481	-5.024054430942892	0	0	-38.57177471740705	-7.696417156223473	17.3249369801412	74.97778097826014	-10.76768257978779	-1.171829742138071	19.24769385900412	4.544701328321208	0	0	0	-10.89704048051139	0	85.49927435510023	4.544701328321208	0	0
